<?xml version="1.0" encoding="utf-8"?>
<!-- Generator: Adobe Illustrator 21.0.2, SVG Export Plug-In . SVG Version: 6.00 Build 0)  -->
<svg version="1.1" id="Ebene_1" xmlns="http://www.w3.org/2000/svg" xmlns:xlink="http://www.w3.org/1999/xlink" x="0px" y="0px"
	 viewBox="0 0 335 74" style="enable-background:new 0 0 335 74;" xml:space="preserve">
<style type="text/css">
	.st0{fill:#575756;}
	.st1{fill:#289E40;}
</style>
<g>
	<path class="st0" d="M121,5.1c1.6,1.2,2.4,3.4,2.4,6.6c0,3.1-0.8,5.3-2.3,6.6c-1.5,1.3-3.5,1.9-5.9,1.9h-4.6V3.3h4.1
		C117.3,3.3,119.4,3.9,121,5.1z M113.8,5.7v12h1.6c1.4,0,2.5-0.4,3.4-1.3c0.8-0.9,1.2-2.5,1.2-4.8c0-1.6-0.2-2.8-0.6-3.7
		c-0.4-0.9-1-1.5-1.6-1.8c-0.7-0.3-1.5-0.5-2.4-0.5H113.8z"/>
	<path class="st0" d="M141,3.3l-0.3,2.4h-6.2v4.7h5.4v2.4h-5.4v4.9h6.6v2.4h-9.9V3.3H141z"/>
	<path class="st0" d="M152.2,3.3v16.8H149V3.3H152.2z"/>
	<path class="st0" d="M173.5,20.1h-4.2l-5.8-13.6c0.1,1.2,0.3,2.3,0.3,3.3s0.1,2.1,0.1,3.5v6.9H161V3.3h4.1l5.9,13.6
		c-0.1-0.6-0.2-1.5-0.3-2.6c-0.1-1.1-0.1-2.1-0.1-3.2V3.3h2.9V20.1z"/>
	<path class="st0" d="M192,3.3l-0.3,2.4h-6.2v4.7h5.4v2.4h-5.4v4.9h6.6v2.4h-9.9V3.3H192z"/>
</g>
<g>
	<path class="st1" d="M33.3,39.1c-0.2,0.3-0.7,0.5-1.5,0.7c-0.8,0.2-2.2,0.4-4.1,0.6c-0.6,0-1.4,0.1-2.5,0.1c-1.1,0-2.2,0.1-3.5,0.1
		c-1.3,0-2.4,0.1-3.4,0c-1,0-1.7-0.1-2.1-0.2c-0.4,0.4-0.6,0.8-0.6,1.2c-0.3,0.5-0.7,1.3-1.1,2.4c-0.4,1.1-0.9,2.2-1.5,3.5
		c-0.5,1.3-1,2.5-1.5,3.8c-0.4,1.3-0.8,2.3-1.1,3.3c-0.3,0.9-0.5,1.6-0.5,1.9c-0.4,1-0.6,1.9-0.7,2.7c-0.1,0.7-0.2,1.2-0.5,1.3
		c-0.1,0.3-0.4,0.5-1,0.4c-0.6-0.1-1-0.3-1.4-0.7c-0.6-0.4-1.1-0.9-1.2-1.3c-0.2-0.5-0.1-1.2,0.2-2.1c0.1-0.6,0.4-1.4,0.7-2.5
		s0.7-2.3,1.1-3.7c0.4-1.3,0.8-2.6,1.3-3.9c0.5-1.3,0.9-2.3,1.3-3.1c0.5-0.8,0.8-1.6,0.9-2.2c0.1-0.7,0.3-1.3,0.5-1.8
		c0-0.5,0-0.8,0-1c0-0.2,0.2-0.4,0.5-0.8c0.2-0.2,0.5-0.5,0.8-0.9c0.3-0.5,0.7-1.2,1.1-2.1c0.1-0.4,0.3-1,0.6-1.8
		c0.3-0.8,0.6-1.5,0.8-2.3c0.3-0.8,0.5-1.5,0.7-2c0.2-0.6,0.3-0.9,0.3-0.9c0.1-0.2,0.2-0.5,0.4-1c0.2-0.5,0.3-0.9,0.4-1.2
		c0.2-0.6,0.3-1.1,0.4-1.5c0.1-0.4,0.1-0.6-0.1-0.6c-0.3,0.1-1,0.2-2.1,0.2c-0.5,0.1-0.9,0.1-1.1,0.2c-0.2,0-0.4,0.1-0.6,0.1
		c-0.4,0-0.8,0-1.2-0.1c-0.3-0.1-0.5-0.4-0.5-0.8c0.1-0.7,0.3-1.3,0.7-1.9c0.4-0.6,0.9-0.9,1.6-0.9c0.3-0.1,0.6-0.2,1-0.2
		c0.4-0.1,0.9-0.2,1.5-0.4c0.8-0.2,1.5-0.3,2-0.3c0.5,0,0.9,0,1.2,0.1c0.2-0.1,0.4-0.3,0.6-0.4c0.2-0.2,0.3-0.3,0.3-0.5
		c0.1-0.4,0.3-0.7,0.6-0.9c0.3-0.2,0.6-0.3,1-0.4c0.4,0,0.7,0.1,1.1,0.2c0.3,0.2,0.5,0.5,0.5,0.9c0.1,0.1,0.2,0.2,0.5,0.3
		c0.2,0.1,0.7,0.1,1.4,0c0.7-0.1,1.8-0.3,3.3-0.6c0.8-0.1,1.8-0.2,3-0.3c1.2-0.1,2.1,0,2.8,0.2c0.7-0.1,1.4-0.2,2-0.2
		c0.6,0,1-0.1,1.2-0.2c0.9,0.2,1.6,0.3,2,0.4c0.4,0.1,0.7,0.2,1,0.4c0.2,0.2,0.2,0.4,0.1,0.7c-0.2-0.1-0.2-0.1,0,0
		c0.2,0.1,0.4,0.2,0.5,0.3c0.3,0.1,0.5,0.3,0.6,0.6c0.1,0.3,0.1,0.5,0.1,0.8c0,0.3-0.1,0.5-0.1,0.6c0,0.4-0.3,0.6-0.6,0.7
		c-0.4,0.1-1.4,0.1-2.9,0c-1.9-0.3-3.7-0.4-5.4-0.3c-1.7,0.1-3.8,0.3-6.2,0.6c-0.9,0-1.6,0.2-2.3,0.4c-0.7,0.2-1,0.3-1.1,0.3
		c-0.2,0-0.5,0.3-0.9,0.9c-0.4,0.6-0.8,1.4-1.2,2.6c-0.2,0.3-0.5,1-0.9,2c-0.4,1-0.9,2.2-1.3,3.4C18.8,33,18.4,34,18,34.9
		c-0.4,0.9-0.6,1.4-0.7,1.5c0.6,0.2,1.6,0.3,2.9,0.3c1.3,0,2.8-0.1,4.4-0.2c1.6-0.1,3.1-0.2,4.5-0.4c0.6-0.1,1.3-0.2,2-0.4
		c0.7-0.1,1.2-0.1,1.4,0c0.3,0.1,0.6,0.4,0.8,0.8c0.2,0.5,0.3,0.9,0.3,1.4C33.7,38.5,33.6,38.9,33.3,39.1z"/>
	<path class="st1" d="M47,57.4c-1,0.8-2.2,1.2-3.5,1.3c-1.3,0.1-2.5-0.1-3.7-0.6c-1.2-0.5-2.1-1.2-2.9-2.2c-0.6-0.8-1-1.8-1.3-3.1
		c-0.3-1.2-0.3-2.9-0.1-4.9c0.2-1.8,0.7-3.6,1.7-5.4c1-1.8,2.1-3.4,3.5-4.8c1.4-1.4,2.8-2.4,4.3-2.9c0.6-0.4,1.2-0.6,1.7-0.6
		c0.5,0,1.3,0,2.3,0.1c1,0.1,1.8,0.3,2.4,0.6c0.6,0.3,1,0.7,1.3,1.1c0.7,0.6,1.1,1.3,1.4,1.9c0.2,0.6,0.3,1.3,0.3,1.9
		c-0.2,1.1-0.8,2.3-1.9,3.8c-1.1,1.4-2.5,2.6-4.3,3.4c-0.9,0.3-1.8,0.5-2.9,0.5c-1.1,0-2.2-0.2-3.2-0.7c-0.9-0.3-1.5-0.2-1.8,0.2
		c-0.3,0.5-0.5,1.5-0.6,3c-0.1,1.4,0.1,2.4,0.5,3.1c0.4,0.7,1,1.1,1.7,1.3c0.9,0.2,1.6,0.2,2.1,0.2c0.5,0,1.1-0.2,1.8-0.6
		c0.6-0.3,1-0.6,1.2-0.7c0.2-0.1,0.4-0.3,0.6-0.4c0.2-0.2,0.5-0.4,0.8-0.7c0.3-0.3,0.5-0.4,0.7-0.6c0.2-0.1,0.4-0.2,0.6-0.2
		c0.3,0,0.6,0.1,0.8,0.4c0.3,0.3,0.5,0.5,0.6,0.7c0.3,0.1,0.2,0.5-0.1,1c-0.3,0.5-0.8,1.2-1.5,1.9C48.7,56.2,47.9,56.8,47,57.4z
		 M46.7,43.4c0.4-0.2,0.9-0.5,1.4-0.9c0.5-0.4,1-0.9,1.4-1.4c0.4-0.5,0.6-0.9,0.6-1.2c0-0.6-0.3-1-0.9-1.4s-1.4-0.5-2.5-0.2
		c-0.4,0.1-0.9,0.4-1.5,0.9c-0.6,0.5-1.1,1-1.6,1.5c-0.5,0.6-0.9,1.1-1.3,1.6c-0.3,0.5-0.5,0.8-0.5,0.9c0.1,0.2,0.5,0.4,1.1,0.5
		c0.6,0.1,1.2,0.2,1.9,0.1C45.6,43.6,46.2,43.5,46.7,43.4z"/>
	<path class="st1" d="M57.7,57.2c-0.4-0.3-0.7-0.6-1-1c-0.3-0.4-0.3-1-0.2-1.8c0.1-1.2,0.3-2.3,0.5-3.2c0.2-0.9,0.5-2,0.8-3.2
		c0.1-0.5,0.3-1.4,0.7-2.7c0.4-1.3,0.9-2.6,1.5-4.1c0.6-1.5,1.1-2.9,1.8-4.2c0.6-1.3,1.1-2.3,1.6-2.9c0.4-0.3,0.9-0.4,1.5-0.4
		c0.6,0,1.1,0.2,1.5,0.6c0.5,0.4,0.6,1.1,0.3,2c-0.3,1-0.9,2.5-1.9,4.6c-0.4,1-0.7,1.7-1,2.3c-0.3,0.6-0.4,1-0.5,1.2
		c0,0.2,0.1,0.2,0.4,0c0.3-0.5,0.7-1,1.4-1.7c0.7-0.6,1.4-1.2,2.2-1.8c0.8-0.6,1.5-1.1,2.2-1.6c0.7-0.5,1.2-0.8,1.4-0.9
		c0.3-0.2,0.7-0.4,1.2-0.6c0.5-0.2,0.8-0.3,0.9-0.4c1-0.5,2-0.6,3.1-0.5c1.1,0.1,1.8,0.5,2,1.2c0,0.3,0.3,0.7,0.8,1
		c0.2,0,0.3,0.1,0.3,0.4c0,0.3-0.2,0.6-0.7,0.8c-0.5,0.2-1.1,0.3-1.8,0.4c-0.6,0-1.1,0.2-1.5,0.3c-0.4,0.2-1,0.4-1.6,0.6
		c-1.6,1-3.2,1.9-4.6,2.7c-1.4,0.9-2.8,2.1-4.2,3.6c-0.3,0.3-0.6,0.7-0.9,1.1c-0.3,0.4-0.7,0.9-1,1.5c-0.2,0.2-0.4,0.7-0.6,1.4
		c-0.2,0.7-0.4,1.4-0.6,2.1c-0.2,0.7-0.2,1.1-0.2,1.2C61.3,56,61,56.7,60.7,57c-0.5,0.7-1,1.1-1.4,1.1
		C58.9,58.2,58.4,57.9,57.7,57.2z"/>
	<path class="st1" d="M83.5,58c-0.8,0-1.4-0.5-2-1.5c-0.6-0.9-0.9-1.9-1-2.9c0-0.3,0.1-0.8,0.2-1.5s0.1-1.3,0.2-2
		c0.2-0.8,0.4-1.8,0.7-3.1c0.3-1.2,0.6-2.5,0.9-3.7c0.3-1.2,0.6-2.3,0.9-3.2s0.4-1.4,0.5-1.6c0.2-0.4,0.6-0.5,1.3-0.3
		c0.6,0.2,1.1,0.6,1.5,1.2c0.3,0.3,0.4,0.8,0.5,1.2c0.1,0.5,0,1.2-0.2,2.1c-0.2,0.9-0.6,2.2-1.1,4c-0.5,1.7-0.8,3.1-1.1,4.2
		c-0.2,1.1-0.3,2.2-0.3,3.3c-0.2,1.6-0.3,2.7-0.4,3.1C84.1,57.8,83.8,58,83.5,58z M90.4,31.8c-0.2,0.1-0.3,0.2-0.5,0.2
		c-0.2,0-0.4-0.1-0.7-0.4c-0.3,0-0.7-0.2-1.1-0.6c-0.5-0.4-0.8-0.8-1.2-1.2c-0.3-0.4-0.5-0.7-0.5-0.7c0-0.4,0-1,0.1-1.8
		c0.1-0.8,0.3-1.5,0.7-2.1c0.4-0.6,0.9-1,1.5-1c0.2,0,0.4,0,0.7,0.1c0.3,0.1,0.7,0.3,1.4,0.5c0.3,0.6,0.7,1.4,1,2.3
		c0.3,0.9,0.4,1.7,0.3,2.6C92,30.4,91.5,31.2,90.4,31.8z"/>
	<path class="st1" d="M96.6,58.1c-1.7-0.7-2.8-1.7-3.3-3c-0.5-1.3-0.7-3.3-0.4-5.9c0.1-1.3,0.1-2.2,0-2.7c-0.1-0.4-0.3-0.9-0.8-1.3
		c-0.1-0.2-0.4-0.4-0.7-0.8c-0.4-0.3-0.5-0.6-0.5-0.8c0-0.3,0-0.6,0.1-1c0.1-0.4,0.2-0.6,0.4-0.6c0.2,0,0.4-0.1,0.7-0.2
		c0.2-0.1,0.4-0.1,0.6,0c0.2,0,0.4,0.1,0.6,0.2c0.3,0.1,0.4,0.2,0.4,0.4c0.2,0.3,0.5,0.3,0.8-0.1c0.4-0.3,0.8-1,1.2-1.8
		c0.4-0.7,1-1.4,1.7-2c0.7-0.7,1.4-1.3,2.1-1.8c0.7-0.6,1.3-1,1.8-1.2c0.2-0.1,0.6-0.2,1.1-0.3c0.5-0.1,1-0.2,1.6-0.4
		c0.6-0.1,1-0.1,1.4-0.1c0.8,0,1.5,0.3,2.1,0.8c0.6,0.5,1.2,1,1.7,1.5c0.6,0.4,0.9,0.9,1.1,1.6c0.2,0.7,0.2,1.4,0.1,2.2
		c-0.1,0.8-0.3,1.5-0.6,2.1c-0.1,0.4-0.5,1-1.2,1.7c-0.6,0.7-1.4,1.3-2.2,1.9c-0.8,0.6-1.6,1-2.2,1.3c-0.6,0.1-1.3,0.2-2.1,0.3
		c-0.8,0.1-1.6,0.1-2.4,0.1c-0.7,0-1.2-0.1-1.5-0.3c-0.3-0.2-0.5,0-0.7,0.5c-0.2,0.5-0.3,1.4-0.4,2.6c-0.1,0.8-0.1,1.4,0,1.8
		c0.1,0.4,0.2,0.7,0.3,0.8c0.3,0.4,0.7,0.8,1.1,1.2c0.5,0.4,1.2,0.5,2.1,0.2c0.8-0.2,1.6-0.7,2.4-1.6c0.8-0.9,1.5-1.6,2.2-2.2
		c0.2-0.3,0.5-0.5,1-0.6c0.5-0.1,1,0,1.6,0.1c0.5,0.3,0.7,0.7,0.6,1.2c-0.1,0.5-0.3,1.2-0.8,2.2c-0.1,0.3-0.4,0.7-0.9,1.2
		c-0.5,0.5-1,1-1.6,1.5c-0.6,0.5-1.1,0.9-1.5,1.1c-1.3,0.7-2.5,1-3.7,1S97.6,58.5,96.6,58.1z M100.7,44.5c0.9-0.2,1.6-0.4,2.1-0.5
		c0.5-0.1,1-0.4,1.5-0.8c0.5-0.4,1.1-1.1,1.8-2.2c0.2-0.5,0.2-0.9,0.2-1.4c0-0.4-0.1-0.7-0.3-0.8c-0.4-0.4-0.8-0.6-1.3-0.4
		c-0.5,0.2-1,0.4-1.5,0.7c-0.3,0.1-0.7,0.4-1.3,0.9c-0.6,0.5-1.1,1-1.7,1.6c-0.5,0.6-1,1.1-1.3,1.6c-0.3,0.5-0.4,0.8-0.2,0.9
		c-0.1,0.2,0.2,0.3,0.7,0.3C100.1,44.4,100.5,44.5,100.7,44.5z"/>
	<path class="st1" d="M133.7,58.7c-0.5,0-1-0.2-1.5-0.7c-0.5-0.5-0.9-1-1.3-1.8c-0.3-0.7-0.5-1.5-0.5-2.3c0-0.6,0.2-1.8,0.5-3.3
		c0.3-1.6,0.7-3.3,1.2-5.1c0.3-1,0.4-1.5,0.3-1.7c-0.1-0.2-0.4-0.1-1.1,0.3c-0.4,0.2-0.8,0.4-1.1,0.6c-0.3,0.2-0.6,0.4-0.9,0.7
		c-0.3,0.1-0.6,0.3-1.1,0.7c-0.5,0.4-1,0.8-1.6,1.3c-0.4,0.3-1,0.8-1.6,1.4c-0.6,0.6-1.2,1.1-1.8,1.7c-0.6,0.6-1.1,1-1.4,1.3
		c-0.2,0.2-0.5,0.5-0.9,0.8c-0.4,0.3-0.8,0.6-1.3,0.9c-0.5,0.3-0.9,0.5-1.3,0.6c-0.4,0-0.8-0.1-1.2-0.4c-0.3-0.2-0.5-0.6-0.6-0.9
		c0-0.3,0-0.8,0-1.6c0-0.8,0.2-1.8,0.4-2.9c0.2-1.1,0.6-2.4,1.1-3.7c0.1-0.3,0.2-0.7,0.4-1.3c0.2-0.6,0.4-1.3,0.6-2.1
		c0.3-0.8,0.5-1.6,0.8-2.4c0-0.3,0.1-0.6,0.2-1c0.1-0.4,0.2-0.8,0.3-1.1c0.1-0.4,0.2-0.6,0.4-0.7c0.2-0.3,0.4-0.4,0.8-0.4
		c0.3,0.1,0.6,0.2,0.9,0.6c0.6,0.4,1,0.9,1.1,1.6c0.1,0.7,0.1,1.5-0.1,2.6c0.1,0.4,0.1,0.9,0.1,1.4c0,0.5-0.1,1-0.3,1.4
		c-0.1,0.4-0.3,0.9-0.6,1.4c0.2,0,0.5-0.2,1-0.6c0.5-0.4,1.2-0.8,2-1.3c0.8-0.6,1.5-1.1,2-1.5c0.5-0.4,1-0.7,1.3-0.9
		c0.3-0.2,0.6-0.3,0.7-0.4c0.2-0.1,0.4-0.2,0.6-0.3c0.2-0.1,0.4-0.2,0.5-0.3c0.1-0.1,0.3-0.2,0.4-0.2c0,0,0.2,0,0.4-0.1
		c0.2-0.1,0.4-0.2,0.6-0.3c0.4-0.2,0.9-0.2,1.4-0.1c0.5,0.1,1,0.4,1.5,0.7c0.4,0.3,0.6,0.7,0.6,1.1c0,0.2,0,0.3,0.1,0.4
		c0.1,0.1,0.2,0.2,0.2,0.2c0.3,0.1,0.5,0.6,0.7,1.5c0.2,0.9,0.1,1.8-0.1,2.8c0,0.6-0.1,1.5-0.4,2.6c-0.3,1.1-0.5,2.1-0.7,3
		c-0.3,1.2-0.6,2.2-0.6,3c-0.1,0.8-0.1,1.5,0,2c0.1,0.5,0.2,0.9,0.4,1.2c0.1,0.3,0.1,0.7-0.2,1.1C134.6,58.5,134.2,58.7,133.7,58.7z
		"/>
	<path class="st1" d="M161.7,57.8c-0.3,0-0.9-0.2-1.5-0.6c-0.7-0.4-1.3-0.9-1.8-1.5c-0.4-0.6-0.7-1.5-0.9-2.7
		c-0.2-1.2-0.4-2.5-0.5-4c-1.3,1.9-2.4,3.4-3.3,4.5c-1,1.1-1.8,2-2.6,2.6c-0.8,0.6-1.5,1-2.2,1.2c-0.4,0.1-0.8,0.1-1.2-0.2
		c-0.4-0.3-0.7-0.5-0.8-0.8c-0.2-0.3-0.4-0.8-0.6-1.5c-0.2-0.7-0.3-1.4-0.2-2.1c-0.1-0.9-0.2-1.9-0.2-3.1s-0.1-2.3-0.1-3.5
		c0-1.1,0-2.2,0-3.1c0-0.9,0.1-1.5,0.3-1.8c0-0.2-0.1-0.4-0.1-0.8c-0.1-0.2-0.2-0.7-0.2-1.5c0-0.8,0.1-1.5,0.2-2.2
		c0.1-0.7,0.2-1.2,0.3-1.4c0.1-0.2,0.3-0.3,0.6-0.5c0.3-0.2,0.6-0.2,0.8-0.3c0.6,0.1,1,0.4,1,0.8c0.1,0.1,0.3,0.2,0.4,0.4
		c0.1,0.2,0.3,0.2,0.5,0.2c0.1,0.1,0.3,0.5,0.4,1.3c0.1,0.8,0.2,1.6,0.2,2.5c0,0.4,0,0.8,0,1.2c0,0.4,0,0.7-0.1,1
		c0,0.2,0,0.7,0.1,1.4c0,0.7,0.1,1.4,0.1,2.2c0,0.6,0,1.3-0.1,2.1c0,0.8-0.1,1.5-0.1,2.1c0.1,0.9,0.2,1.4,0.3,1.7
		c0,0.2,0.2,0.3,0.5,0.1c0.3-0.1,0.7-0.6,1.3-1.5c0.6-0.9,1.4-2.2,2.3-3.7c0.7-1,1.3-1.9,1.7-2.7c0.5-0.8,0.9-1.4,1.2-1.8
		c0.1-1,0.3-2,0.4-2.8c0.2-0.8,0.2-1.4,0.3-1.8c0.6-0.6,1.2-1,1.8-1.1c0.6-0.2,1,0.1,1.3,0.7c0.4,0.2,0.8,0.5,1,0.9
		c0.2,0.4,0.3,0.9,0.2,1.3c-0.2,0.6-0.3,1.2-0.5,1.8c-0.2,0.6-0.3,1.1-0.5,1.8c-0.2,0.6-0.3,1.5-0.4,2.8c-0.1,1.3-0.1,2.5-0.1,3.7
		c0,1.2,0.1,2.2,0.3,2.8c0,0.4,0.2,0.6,0.6,0.6c0.3,0,0.8-0.2,1.5-0.8c0.6-0.7,1.3-1.5,2.1-2.5c0.7-1,1.4-1.9,1.9-2.8
		s0.8-1.4,0.8-1.6c0-0.3,0.1-0.7,0.3-1.1c0.2-0.4,0.4-0.7,0.6-0.9c0.2-0.3,0.3-0.5,0.4-0.8c0-0.3,0.1-0.6,0.3-0.9
		c0-0.1,0.1-0.2,0.2-0.4c0.1-0.2,0.2-0.3,0.2-0.5c-0.1-0.3,0-0.6,0.3-0.8c0.3-0.2,0.5-0.5,0.6-0.7c0.1-0.6,0.4-0.9,0.9-1.1
		c0.5-0.2,1-0.1,1.5,0.1c0.5,0.3,0.8,0.8,0.8,1.5c0,0.5-0.1,1.3-0.4,2.3c-0.3,1-0.7,2.1-1.1,3.2c-0.5,1.1-1,2.1-1.7,3
		c-0.2,0.3-0.3,0.7-0.5,1c-0.2,0.3-0.4,0.8-0.7,1.4c-0.3,0.6-1,1.4-1.8,2.5c-0.3,0.3-0.6,0.7-0.9,1.1c-0.3,0.4-0.7,0.7-1,1
		c-0.7,1-1.4,1.7-2.1,2.4C162.9,57.4,162.3,57.7,161.7,57.8z"/>
	<path class="st1" d="M180.7,58.5c-0.6,0-1-0.1-1.3-0.3c-0.3-0.2-0.7-0.5-1.2-0.9c-0.8-0.9-1.4-1.7-1.8-2.6
		c-0.4-0.9-0.6-1.7-0.4-2.4c0.1-0.3,0.2-0.8,0.1-1.5c-0.2-0.2-0.3-0.4-0.2-0.4c0.1-0.1,0.2-0.2,0.3-0.4c0.3,0,0.3-0.2,0.3-0.7
		c-0.1-0.3,0.1-1.1,0.5-2.3c0.4-1.2,0.9-2.3,1.6-3.3c0.3-0.4,0.6-1,1.2-1.7c0.5-0.7,1.1-1.4,1.7-2.1c0.6-0.7,1.2-1.3,1.7-1.7
		c1.1-0.9,2.1-1.6,2.9-2.1c0.9-0.5,1.8-0.8,2.7-1c1-0.2,1.7-0.3,2.3-0.3c0.6,0,1.2,0.3,1.8,1c1,0.4,1.7,1,2.1,1.6
		c0.4,0.6,0.7,1.6,0.8,2.7c0.1,1.3,0,2.8-0.3,4.5c-0.3,1.7-1.4,3.8-3.1,6.3c-1.1,1.6-2.1,2.7-3,3.5c-1,0.8-2.1,1.6-3.3,2.3
		c-0.9,0.6-1.8,1-2.6,1.3C182.6,58.3,181.7,58.4,180.7,58.5z M187.1,51.3c1-1,1.8-2.1,2.3-3.1c0.6-1,1.1-2.3,1.6-3.8
		c0.2-0.4,0.3-1,0.3-1.7c0-0.7,0-1.3,0-1.9c0-0.6-0.2-1-0.5-1c-0.5-0.3-1-0.4-1.7-0.3c-0.6,0.1-1.3,0.5-2.1,1.1
		c-1.3,1.1-2.5,2.5-3.5,4.1c-1,1.6-1.9,3.4-2.7,5.5c-0.5,1.4-0.5,2.5-0.2,3.3c0.4,0.8,1.1,1.1,2.2,0.8C184.1,54,185.5,53,187.1,51.3
		z"/>
	<path class="st1" d="M201.7,56.1c-0.3,0-0.6,0-1-0.1c-0.3-0.1-0.7-0.3-1-0.5c-0.3-0.4-0.6-0.7-0.7-1c-0.2-0.3-0.2-0.6-0.2-1.1
		c0-0.5,0.2-1.1,0.3-1.9c0.2-0.7,0.5-1.6,0.8-2.9c0.3-1.2,0.6-2.4,1-3.7c0.1-0.6,0.2-1.3,0.5-2c0.2-0.7,0.5-1.4,0.7-2
		c0.3-0.6,0.5-1.1,0.6-1.5c0.3-1.2,0.7-2.2,1-3.1c0.3-0.9,0.7-2,1.2-3.2c0.5-1.2,1.1-2.8,1.8-4.8c1-2.6,1.7-4.6,2.2-5.9
		c0.5-1.3,0.9-2.3,1.1-2.9c0.2-0.6,0.4-1.1,0.5-1.4c0-0.3,0.2-0.6,0.5-0.8c0.3-0.2,0.6-0.3,1-0.3c0.6,0,1.1,0.3,1.6,0.9
		c0.4,0.6,0.7,1.3,0.8,2.2s0,1.7-0.5,2.4c-0.7,1.6-1.4,3.4-2.1,5.4c-0.7,2.1-1.5,4.1-2.2,6.1c-0.7,2-1.4,3.8-2,5.2
		c0,0.2-0.1,0.6-0.3,1c-0.2,0.5-0.3,0.9-0.5,1.2c-0.2,0.3-0.4,0.8-0.7,1.4c0,0.2-0.1,0.6-0.2,1c-0.1,0.5-0.3,1-0.5,1.6
		c-0.1,0.4-0.3,1-0.5,1.6c-0.2,0.6-0.3,1.2-0.4,1.8c0.2-0.3,0.6-0.8,1.2-1.5c0.6-0.6,1.2-1.3,1.8-1.8c0.7-0.6,1.4-1.2,2.1-1.8
		c0.7-0.6,1.4-1.1,1.9-1.5c0.5-0.3,1.2-0.8,2-1.4c0-0.1,0.1-0.2,0.3-0.3c0.1-0.1,0.3-0.1,0.5-0.1c0.1,0,0.2-0.1,0.3-0.2
		c0.1-0.1,0.2-0.2,0.3-0.4c0.1-0.3,0.4-0.5,0.9-0.6c0.5-0.2,1-0.3,1.6-0.4c0.6-0.1,1.1-0.1,1.6-0.1c0.5,0,1,0.1,1.4,0.4
		c0.4,0.3,0.8,0.8,1.3,1.5c0.5,0.6,0.8,1.4,0.9,2.3c0.1,0.9,0.1,1.9-0.2,3c0,0.3-0.1,0.9-0.2,1.6c-0.1,0.7-0.2,1.4-0.3,2l-0.5,2.1
		h0.9c0.4,0,0.9,0,1.6,0.3c0.2,0.2,0.4,0.3,0.6,0.5c0.2,0.2,0.4,0.2,0.6,0.3c0.4,0.1,0.5,0.4,0.3,0.9c-0.2,0.5-0.6,0.9-1,1.2
		c-1,0.7-2,1.1-2.8,1.1c-0.8,0.1-1.6-0.2-2.4-0.8c-0.7-0.7-1.2-1.5-1.4-2.3c-0.2-0.9-0.2-2,0-3.4c0.2-1.9,0.3-3.3,0.3-4.1
		c0-0.9-0.2-1.3-0.6-1.3c-0.5,0-1.2,0.3-2.2,0.8c-1,0.6-2.2,1.3-3.4,2.2c-1.3,0.9-2.5,2-3.7,3.1c-1.2,1.1-2.2,2.3-3.1,3.5
		c-0.5,0.6-1,1.2-1.6,1.8C202.9,55.8,202.4,56.1,201.7,56.1z"/>
	<path class="st1" d="M249.9,58.7c-0.5,0-1-0.2-1.5-0.7c-0.5-0.5-0.9-1-1.3-1.8c-0.3-0.7-0.5-1.5-0.5-2.3c0-0.6,0.2-1.8,0.5-3.3
		c0.3-1.6,0.7-3.3,1.2-5.1c0.3-1,0.4-1.5,0.3-1.7c-0.1-0.2-0.4-0.1-1.1,0.3c-0.4,0.2-0.8,0.4-1.1,0.6c-0.3,0.2-0.6,0.4-0.9,0.7
		c-0.3,0.1-0.6,0.3-1.1,0.7c-0.5,0.4-1,0.8-1.6,1.3c-0.4,0.3-1,0.8-1.6,1.4c-0.6,0.6-1.2,1.1-1.8,1.7c-0.6,0.6-1.1,1-1.4,1.3
		c-0.2,0.2-0.5,0.5-0.9,0.8c-0.4,0.3-0.8,0.6-1.3,0.9c-0.5,0.3-0.9,0.5-1.3,0.6c-0.4,0-0.8-0.1-1.2-0.4c-0.3-0.2-0.5-0.6-0.6-0.9
		c0-0.3,0-0.8,0-1.6c0-0.8,0.2-1.8,0.4-2.9c0.2-1.1,0.6-2.4,1.1-3.7c0.1-0.3,0.2-0.7,0.4-1.3c0.2-0.6,0.4-1.3,0.6-2.1
		c0.3-0.8,0.5-1.6,0.8-2.4c0-0.3,0.1-0.6,0.2-1c0.1-0.4,0.2-0.8,0.3-1.1c0.1-0.4,0.2-0.6,0.4-0.7c0.2-0.3,0.4-0.4,0.8-0.4
		c0.3,0.1,0.6,0.2,0.9,0.6c0.6,0.4,1,0.9,1.1,1.6c0.1,0.7,0.1,1.5-0.1,2.6c0.1,0.4,0.1,0.9,0.1,1.4c0,0.5-0.1,1-0.3,1.4
		c-0.1,0.4-0.3,0.9-0.6,1.4c0.2,0,0.5-0.2,1-0.6c0.5-0.4,1.2-0.8,2-1.3c0.8-0.6,1.5-1.1,2-1.5c0.5-0.4,1-0.7,1.3-0.9
		c0.3-0.2,0.6-0.3,0.7-0.4c0.2-0.1,0.4-0.2,0.6-0.3c0.2-0.1,0.4-0.2,0.5-0.3c0.1-0.1,0.3-0.2,0.4-0.2c0,0,0.2,0,0.4-0.1
		c0.2-0.1,0.4-0.2,0.6-0.3c0.4-0.2,0.9-0.2,1.4-0.1c0.5,0.1,1,0.4,1.5,0.7c0.4,0.3,0.6,0.7,0.6,1.1c0,0.2,0,0.3,0.1,0.4
		c0.1,0.1,0.2,0.2,0.2,0.2c0.3,0.1,0.5,0.6,0.7,1.5c0.2,0.9,0.1,1.8-0.1,2.8c0,0.6-0.1,1.5-0.4,2.6c-0.3,1.1-0.5,2.1-0.7,3
		c-0.3,1.2-0.6,2.2-0.6,3c-0.1,0.8-0.1,1.5,0,2c0.1,0.5,0.2,0.9,0.4,1.2c0.1,0.3,0.1,0.7-0.2,1.1C250.9,58.5,250.5,58.7,249.9,58.7z
		"/>
	<path class="st1" d="M274.4,59.4c-0.3,0.2-0.7,0.1-1.2-0.2c-0.5-0.3-1-0.8-1.5-1.4c-0.3-0.5-0.5-1.1-0.6-1.7
		c-0.1-0.6-0.2-1.4-0.2-2.5c0-0.9,0-1.4-0.1-1.7c-0.1-0.3-0.3-0.3-0.7,0c-0.4,0.3-1,1-2,1.9c-1.1,1.1-2.1,1.9-3.1,2.6
		c-1,0.6-1.8,1-2.4,0.9c-0.3,0-0.7-0.2-1.1-0.5c-0.4-0.3-0.8-0.8-1.2-1.3c-0.3-0.5-0.6-1-0.8-1.6c-0.3-1-0.3-2.3-0.1-3.8
		c0.2-1.5,0.6-3.2,1.1-4.9c0.5-1.7,1.1-3.3,1.8-4.8c0.6-1.5,1.3-2.7,2-3.6c0.7-0.9,1.3-1.4,1.8-1.4c0.5,0,0.9,0.3,1.3,0.7
		c0.4,0.4,0.7,1,1,1.8c0.2,0.3,0.2,0.6,0.2,0.8c0,0.2-0.2,0.5-0.6,0.8c-0.4,0.5-0.8,1.3-1.4,2.3c-0.5,1-1,2.1-1.5,3.3
		c-0.5,1.2-0.9,2.3-1.3,3.4c-0.4,1.1-0.6,2-0.8,2.7c-0.2,0.7-0.1,1,0,1c0.6,0,1.3-0.2,2-0.6c0.7-0.4,1.5-1,2.3-1.8
		c0.9-0.9,1.7-1.9,2.4-2.9s1.4-2.2,2.2-3.4c0.6-0.9,1.2-1.8,1.8-2.9c0.6-1,1-1.8,1.2-2.2c0.6-1.1,1.1-1.9,1.4-2.4
		c0.3-0.5,0.7-0.7,1.1-0.9c0.2,0,0.6,0,1.1,0c0.3,0,0.6,0.2,0.9,0.6c0.3,0.2,0.6,0.4,0.7,0.6c0.2,0.2,0.2,0.4,0.2,0.6
		c-0.2,0.4-0.4,1.1-0.8,1.9s-0.6,1.5-0.8,1.8c-0.8,1.9-1.6,3.7-2.4,5.5c-0.8,1.8-1.4,3.6-1.7,5.5c-0.1,0.6-0.1,1.3,0,2.1
		c0.1,0.8,0.2,1.4,0.4,1.7c0.1,0.3,0.3,0.6,0.5,0.9c0.2,0.3,0.4,0.6,0.7,0.8c0.4,0.3,0.4,0.6,0.2,0.9c-0.3,0.3-0.6,0.6-1.1,0.8
		C274.8,59.3,274.6,59.4,274.4,59.4z"/>
	<path class="st1" d="M286.2,56.7c-0.2,0-0.5-0.1-0.9-0.4c-0.4-0.3-0.7-0.5-0.9-0.6c-0.3-0.3-0.5-0.7-0.6-1.1
		c-0.1-0.4-0.1-1.2-0.1-2.4c0-1.4,0.3-2.9,0.8-4.6c0.6-1.7,1.5-4,2.9-6.9l2.3-4.8c0.2-0.3,0.3-0.6,0.5-0.8c0.2-0.2,0.3-0.4,0.5-0.6
		c0.1,0,0.3,0,0.6,0c0.4,0,0.8,0.2,1.3,0.6c0.5,0.4,0.8,1,1,1.6c0,0.6-0.1,1.2-0.2,1.8c-0.2,0.6-0.7,1.6-1.6,2.8
		c-0.3,0.5-0.7,1.2-1.1,2.2c-0.4,1-0.8,1.9-1,2.7c0,0.1-0.1,0.3-0.3,0.6c-0.2,0.3-0.3,0.7-0.5,1c-0.2,0.4-0.3,0.7-0.4,0.9l-0.3,1.1
		l3.8-3.9c2-2,3.7-3.4,5-4.2c1.3-0.8,2.3-1.2,3.1-1.1c0.8,0.1,1.5,0.7,2,1.7c0.3,0.5,0.5,0.9,0.7,1.3c0.2,0.4,0.2,0.9,0.3,1.5
		c0,0.6,0,1.5-0.1,2.7v3.9c0.7-0.2,1.3-0.3,1.7-0.5c0.4-0.2,0.8-0.3,1.2-0.5c0.4-0.1,0.8-0.3,1.3-0.4c0.5-0.1,1.1-0.2,1.8-0.3
		c0,0.6-0.2,1.2-0.6,1.9c-0.4,0.7-0.8,1.4-1.4,2c-0.6,0.6-1.2,1.2-1.8,1.6c-0.6,0.4-1.3,0.6-1.9,0.6c-0.6,0-1.2-0.2-1.9-0.7
		c-0.7-0.5-1.3-1.2-1.7-2c-0.2-0.5-0.3-1.1-0.4-1.7c-0.1-0.6-0.1-1.6-0.1-2.9v-2.5c0-0.6-0.1-0.8-0.4-0.6c-0.3,0.2-0.5,0.3-0.7,0.4
		c-0.5,0.4-1.2,1-1.9,1.8c-0.8,0.8-1.6,1.6-2.4,2.4c-2,2.1-3.6,3.6-5,4.6C287.5,56.2,286.6,56.7,286.2,56.7z"/>
	<path class="st1" d="M319.3,71.9c-1.2,0.5-2.5,0.4-3.8-0.2c-1.3-0.6-2.5-1.6-3.4-2.9c-0.2-0.3-0.4-0.7-0.7-1.3s-0.5-1.2-0.8-1.8
		c-0.2-0.6-0.4-1.2-0.5-1.7c-0.1-0.5,0-0.8,0.1-0.8c0.1-0.3,0.4-0.4,0.8-0.4c0.4,0,0.8,0.1,1.2,0.3c0.4,0.2,0.6,0.4,0.7,0.6
		c0.1,0.3,0.3,0.7,0.5,1.1c0.2,0.4,0.5,0.8,0.8,1.2c0.3,0.4,0.5,0.6,0.7,0.7c0.7,0.5,1.3,0.8,1.7,0.9s0.8,0,1.1-0.2
		c0.7-0.6,1.3-1.3,1.8-2.1c0.4-0.9,1-2.2,1.6-4.1c0.5-1.6,0.9-3.2,1.4-4.8c0.5-1.6,0.9-2.9,1.3-3.9c0.1-0.5,0.3-1,0.5-1.3
		c0.2-0.4,0.4-0.6,0.6-0.8h0.4c-1,0.6-1.8,1.3-2.5,2c-0.7,0.7-1.6,1.3-2.8,1.8c-0.3,0.3-0.9,0.5-1.9,0.6c-1,0.1-2-0.1-2.9-0.4
		c-0.6-0.3-1.1-0.6-1.4-0.9c-0.3-0.2-0.5-0.5-0.7-0.9c-0.2-0.4-0.4-0.9-0.6-1.5c-0.3-0.6-0.3-1.7-0.1-3.2c0.2-1.5,0.6-2.9,1.2-4.4
		c0.5-1.1,1.3-2.2,2.3-3.5c1-1.3,2.1-2.4,3.2-3.4c1.1-1,2.1-1.7,3-1.9c0.3-0.2,0.8-0.3,1.4-0.4c0.6-0.1,1.2-0.1,2,0.2
		c0.7,0.1,1.3,0.2,1.7,0.5c0.4,0.2,1,0.7,1.9,1.5c0.6,0.6,1.1,1.2,1.6,1.8c0.5,0.7,0.9,1.3,1.1,1.9c0.3,0.6,0.4,1.3,0.3,1.9
		c-0.1,0.6-0.4,1.2-0.8,1.8c-0.4,0.6-0.8,1.1-1.2,1.7c-0.4,0.6-0.8,1.3-1,2.3c-0.2,1.3-0.6,2.8-1.1,4.4c-0.5,1.6-1,3.1-1.3,4.5l-1,4
		c-1.1,3.7-2.2,6.4-3.2,8.1C321.2,70.3,320.2,71.4,319.3,71.9z M317.3,50.6c0.9,0,1.7-0.2,2.4-0.5c0.7-0.3,1.4-0.7,2.1-1.4
		c0.7-0.6,1.4-1.5,2.1-2.7c0.7-1,1.3-2.1,1.6-3.1c0.3-1.1,0.4-2.1,0.3-3.2c0-0.7-0.2-1.1-0.4-1.4c-0.2-0.2-0.6-0.3-1.2-0.2
		c-0.8,0.1-1.7,0.5-2.5,1.2c-0.9,0.7-1.7,1.6-2.6,2.7c-0.6,0.9-1.2,1.9-1.6,3.1c-0.4,1.3-0.7,2.5-0.7,3.5
		C316.7,49.8,316.9,50.5,317.3,50.6z"/>
</g>
</svg>
